# xmcd CD database file
#
# Track frame offsets:
#	150
#	30198
#	43855
#	62776
#	86727
#	107680
#	127937
#	144198
#	154440
#	176331
#	190772
#	207086
#	229240
#	250732
#	267341
#	280514
#	300905
#	320994
#
# Disc length: 4584 seconds
#
# Revision: 0
# Processed by: cddbd v1.5.1PL0 Copyright (c) Steve Scherf et al.
# Submitted via: CDex 1.51
#
DISCID=f111e612
DTITLE=Sting - All This Time
DYEAR=2001
DGENRE=Jazz
TTITLE0=Fragile
TTITLE1=Thousand Years
TTITLE2=Perfect Love Gone Wrong
TTITLE3=All This Time
TTITLE4=Seven Days
TTITLE5=Hounds Of Winter 
TTITLE6=Mad About You
TTITLE7=Don't Stand So Close To Me
TTITLE8=When We Dance
TTITLE9=Dienda
TTITLE10=Roxanne
TTITLE11=(If You Love Someone) Set Them Free
TTITLE12=Brand New Day
TTITLE13=Fields Of Gold
TTITLE14=Moon Over Bourbon Street
TTITLE15=Shape Of My Heart
TTITLE16=If I Ever Lose My Faith In You
TTITLE17=Every Breath You Take
EXTD=YEAR: 2001
EXTT0=
EXTT1=
EXTT2=
EXTT3=
EXTT4=
EXTT5=
EXTT6=
EXTT7=
EXTT8=
EXTT9=
EXTT10=
EXTT11=
EXTT12=
EXTT13=
EXTT14=
EXTT15=
EXTT16=
EXTT17=
PLAYORDER=
